<svg width="88" height="48" viewBox="0 0 88 48" fill="none" xmlns="http://www.w3.org/2000/svg">
<path d="M9.12296 39.8383L5.59856 47.9991H3.52396L0 39.8383H2.23784L4.56148 45.2195L6.88512 39.8383H9.12296Z" fill="#1A1A1A"/>
<path d="M12.5638 39.8383H10.5618V47.9991H12.5638V39.8383Z" fill="#1A1A1A"/>
<path d="M22.6468 39.8383V47.9921H20.3614L16.5572 43.1058V47.9991H14.5552V39.8383H16.6575L20.6448 44.9911V39.8383H22.6468Z" fill="#1A1A1A"/>
<path d="M31.6874 46.4267V48H26.5077C25.4988 48 24.6782 47.1509 24.6782 46.1076V41.7315C24.6782 40.6882 25.4988 39.8391 26.5077 39.8391H31.5831V41.4115H26.7621C26.6862 41.4122 26.6112 41.4278 26.5414 41.4573C26.4716 41.4869 26.4084 41.5299 26.3552 41.5838C26.3021 41.6378 26.2602 41.7016 26.2319 41.7717C26.2035 41.8418 26.1893 41.9168 26.1901 41.9923V45.8459C26.1894 45.9656 26.226 46.0826 26.2948 46.1808V46.1926L26.3555 46.2553C26.4081 46.3095 26.4712 46.3526 26.5409 46.3821C26.6106 46.4115 26.6855 46.4267 26.7612 46.4267H31.6874Z" fill="#1A1A1A"/>
<path d="M39.6532 39.8383H35.4015C34.4124 39.8383 33.608 40.6711 33.608 41.6929V46.1453C33.608 47.168 34.4124 48 35.4015 48H39.6532C40.6419 48 41.4466 47.1671 41.4466 46.1453V41.6929C41.448 40.6703 40.6419 39.8383 39.6532 39.8383ZM39.9335 45.8205C39.9339 45.979 39.8726 46.1314 39.7623 46.2457C39.7075 46.3029 39.6416 46.3485 39.5686 46.3796C39.4957 46.4107 39.4171 46.4267 39.3377 46.4267H35.717C35.5573 46.4249 35.4048 46.36 35.2931 46.2464C35.1813 46.1328 35.1193 45.9796 35.1208 45.8205V42.0173C35.1192 41.8582 35.1812 41.7051 35.293 41.5915C35.4048 41.4779 35.5573 41.4131 35.717 41.4115H39.336C39.415 41.4123 39.4931 41.4286 39.5658 41.4595C39.6386 41.4904 39.7045 41.5352 39.7598 41.5915C39.8151 41.6477 39.8588 41.7143 39.8883 41.7874C39.9178 41.8604 39.9325 41.9386 39.9317 42.0173L39.9335 45.8205Z" fill="#1A1A1A"/>
<path d="M51.5504 39.8374V47.993H49.6056L45.2593 42.2186V48H43.7461V39.8374H45.5013L50.0377 45.8999V39.8374H51.5504Z" fill="#1A1A1A"/>
<path d="M60.7666 39.8374V41.4115H57.8111V48H56.2984V41.4115H53.3434V39.8374H60.7666Z" fill="#1A1A1A"/>
<path d="M67.8669 39.8383H64.3442C63.3353 39.8383 62.5143 40.6874 62.5143 41.7306V47.9991H64.0274V45.3458H68.1837V48H69.696V41.7315C69.696 40.6874 68.8762 39.8383 67.8669 39.8383ZM68.1837 43.7734H64.0274V41.9945C64.026 41.842 64.0855 41.6951 64.1928 41.5862C64.3 41.4772 64.4463 41.4152 64.5994 41.4137H67.6139C67.767 41.4152 67.9133 41.4772 68.0206 41.5862C68.1278 41.6951 68.1873 41.842 68.1859 41.9945L68.1837 43.7734Z" fill="#1A1A1A"/>
<path d="M78.9474 46.4267V48H73.769C72.7601 48 71.9391 47.1509 71.9391 46.1076V41.7315C71.9391 40.6882 72.7592 39.8391 73.7682 39.8391H78.8444V41.4115H74.0225C73.9466 41.4121 73.8716 41.4277 73.8018 41.4572C73.732 41.4868 73.6687 41.5297 73.6155 41.5837C73.5624 41.6376 73.5205 41.7015 73.4922 41.7716C73.4638 41.8417 73.4497 41.9167 73.4505 41.9923V45.8459C73.4493 45.9957 73.5064 46.14 73.6098 46.2488L73.6146 46.2545C73.6672 46.3089 73.7303 46.3522 73.8001 46.3818C73.8698 46.4114 73.9449 46.4267 74.0207 46.4267H78.9474Z" fill="#1A1A1A"/>
<path d="M88 39.8374V41.4115H85.0441V48H83.531V41.4115H80.5759V39.8374H88Z" fill="#1A1A1A"/>
<path d="M66.0101 30.4281C65.3316 30.4 64.6523 30.3842 63.9738 30.3597C63.9905 29.8043 64.0006 29.2476 64.0178 28.6939C64.0314 28.0842 64.0495 27.4744 64.0583 26.8647L64.0899 25.0367L64.1067 24.1223L64.1168 23.207C64.1269 21.9888 64.1463 20.7693 64.1511 19.5511L64.1612 16.2534L66.6745 16.2459L68.1102 16.238L69.5442 16.2231C70.5012 16.2104 71.4582 16.2065 72.4139 16.1876L75.0389 16.1394L75.0618 17.0727C75.0759 17.7127 75.0974 18.3531 75.1177 18.9931L75.1485 19.9527L75.1854 20.914C75.1995 21.2892 75.2142 21.6644 75.2294 22.0397C75.2458 22.4289 75.2636 22.8181 75.2827 23.207C75.312 22.5986 75.3384 21.9893 75.3619 21.3791L75.3962 20.4651L75.4239 19.5511C75.4433 18.9409 75.4635 18.3312 75.4776 17.7214L75.5093 15.6563L75.522 15.1531L75.5273 14.9046L75.2677 14.8993L72.2159 14.8436C71.1995 14.8248 70.1826 14.8195 69.1658 14.8068L67.6399 14.7906L66.1157 14.7814L63.0639 14.7739H62.6824V15.1544L62.6951 18.9944C62.7 20.2749 62.7189 21.554 62.7317 22.8344L62.7422 23.7944L62.7585 24.7553L62.7928 26.6744C62.8016 27.3149 62.8223 27.9549 62.8368 28.5953C62.8513 29.2357 62.8659 29.8744 62.8874 30.5149L62.894 30.6959L63.063 30.6911L63.6407 30.6718C64.3764 30.6464 65.2735 30.6477 66.0092 30.6174C66.7449 30.5872 67.4815 30.5604 68.2167 30.5236C67.4822 30.485 66.7467 30.4532 66.0101 30.4281Z" fill="#EB2D1A"/>
<path d="M76.084 28.3617C76.1249 28.2832 76.1645 28.2021 76.2023 28.1144C76.5807 27.1896 76.5807 26.154 76.2023 25.2292C76.0239 24.8027 75.762 24.416 75.4318 24.0915C75.1017 23.767 74.71 23.5114 74.2795 23.3394C73.3823 22.9835 72.3823 22.9835 71.4851 23.3394C71.0549 23.5116 70.6635 23.7674 70.3337 24.092C70.0039 24.4165 69.7422 24.8032 69.564 25.2296C69.1856 26.1546 69.1856 27.1904 69.564 28.1153C69.6023 28.203 69.6419 28.2845 69.6828 28.3625L67.5735 32.8176L70.0256 32.3542L71.2255 34.5342L72.8843 31.0321L74.5418 34.5342L75.7421 32.3542L78.1951 32.8176L76.084 28.3617ZM71.156 32.2486L70.576 31.1943L69.388 31.4183L70.3899 29.3024C70.7091 29.6019 71.0802 29.8413 71.4851 30.009L71.5036 30.0165C71.7044 30.0979 71.9124 30.1605 72.1248 30.2036L71.156 32.2486ZM73.282 29.2678C73.1984 29.28 73.1184 29.2879 73.0356 29.2919C72.9855 29.2945 72.9344 29.2962 72.8834 29.2962H72.853C72.8121 29.2962 72.7716 29.2962 72.732 29.2927H72.7281C72.6911 29.2927 72.6542 29.2853 72.6172 29.2818L72.6097 29.2664H72.468H72.4645C72.2603 29.2351 72.0608 29.1787 71.8705 29.0985C71.5637 28.9702 71.2846 28.784 71.0486 28.5502L71.0438 28.5453C70.9452 28.4468 70.8557 28.3397 70.7762 28.2253L70.7661 28.2109C70.752 28.1912 70.7393 28.1701 70.7256 28.1499C70.686 28.09 70.6485 28.0272 70.613 27.9615L70.6002 27.936C70.5637 27.8659 70.5285 27.7931 70.496 27.7168C70.492 27.7072 70.488 27.698 70.4845 27.6884V27.6844L70.4801 27.673C70.3572 27.3545 70.2959 27.0157 70.2993 26.6744C70.2961 26.318 70.3644 25.9644 70.5004 25.6347C70.6275 25.3258 70.8142 25.0448 71.0499 24.8075C71.2849 24.5747 71.5636 24.3903 71.8701 24.2648C72.5218 24.0041 73.2494 24.0041 73.9011 24.2648C74.2076 24.3903 74.4863 24.5747 74.7213 24.8075C74.957 25.0448 75.1437 25.3258 75.2708 25.6347C75.4065 25.9645 75.4749 26.318 75.4719 26.6744C75.475 27.0204 75.412 27.3637 75.2862 27.6862C75.2823 27.6962 75.2779 27.7063 75.2739 27.7168L75.2704 27.7243C75.1991 27.896 75.1097 28.0597 75.0038 28.2126C74.92 28.3338 74.8253 28.4471 74.7208 28.551C74.485 28.7851 74.2059 28.9713 73.8989 29.0994C73.7083 29.1805 73.5081 29.237 73.3032 29.2678H73.282ZM75.193 31.1934L74.6117 32.2481L73.6437 30.2028C73.8628 30.1584 74.077 30.093 74.2835 30.0077C74.6886 29.84 75.06 29.6006 75.3795 29.3011L76.381 31.4175L75.193 31.1934Z" fill="#EB2D1A"/>
<path d="M71.3412 17.3782C70.6199 17.2936 69.8942 17.252 69.168 17.2537C68.4409 17.2532 67.7144 17.2953 66.9922 17.38C66.2671 17.4716 65.5402 17.5939 64.8164 17.8385C65.542 18.0831 66.2684 18.2054 66.9922 18.297C67.7144 18.3816 68.4409 18.4238 69.168 18.4232C69.895 18.4249 70.6214 18.3832 71.3434 18.2983C72.0689 18.2071 72.7954 18.0844 73.5192 17.8385C72.7918 17.5926 72.0667 17.4698 71.3412 17.3782Z" fill="#EB2D1A"/>
<path d="M69.168 19.2074C68.4406 19.2069 67.7139 19.2521 66.9922 19.3429C66.2671 19.4411 65.5402 19.5721 64.8164 19.8343C65.542 20.0973 66.2684 20.2288 66.9922 20.3257C67.7139 20.4162 68.4406 20.4614 69.168 20.4611C69.8952 20.4634 70.6218 20.4195 71.3434 20.3296C72.0689 20.2314 72.7954 20.0999 73.5192 19.8365C72.794 19.5734 72.0672 19.4419 71.3434 19.3433C70.6219 19.2516 69.8953 19.2062 69.168 19.2074Z" fill="#EB2D1A"/>
<path d="M26.3767 29.4176C26.0533 28.6764 25.6952 27.9505 25.3084 27.2399C25.2719 27.1737 25.2336 27.1084 25.1966 27.0418C24.8724 26.4649 24.5265 25.8985 24.1481 25.3519C23.7287 24.7384 23.2605 24.1596 22.748 23.6208C22.616 23.4893 22.484 23.3547 22.3428 23.2311C22.2856 23.1772 22.2258 23.1255 22.1668 23.0746C22.0828 23.0041 21.997 22.9352 21.9116 22.866C21.6073 22.6321 21.2785 22.4317 20.9308 22.2685C20.688 22.1601 20.446 22.05 20.2048 21.9384C19.8018 21.7517 19.4001 21.5603 18.9997 21.3642C18.9218 21.326 18.8448 21.2875 18.7674 21.2489C18.2948 21.0148 17.8236 20.7763 17.3554 20.5295L17.0914 20.391C16.9515 20.3178 16.8124 20.2437 16.673 20.1692C16.4635 20.0573 16.2545 19.944 16.046 19.8295C15.7641 19.6752 15.4822 19.5193 15.2003 19.3618H15.2029L15.2262 19.381L15.2645 19.4126L15.1888 19.3644L15.1915 19.3666L15.2144 19.3863L15.2518 19.4187C15.2636 19.4293 15.2777 19.4411 15.2931 19.4551C15.2993 19.4608 15.3063 19.467 15.3142 19.4731C15.4022 19.5511 15.4902 19.627 15.5782 19.7019C15.6077 19.7273 15.6381 19.7519 15.6662 19.7764C15.7217 19.8225 15.7767 19.8689 15.8321 19.9141L15.8378 19.9185L16.0015 20.0548C16.9163 20.8127 18.4484 22.0331 19.8106 22.8844C19.8135 22.8858 19.8163 22.8874 19.819 22.8892L19.8352 22.8993C19.9901 22.9922 20.1432 23.0838 20.3012 23.1746C20.589 23.3493 20.8627 23.546 21.12 23.7629C21.3801 23.982 21.6348 24.2214 21.8786 24.4726C22.6103 25.2261 23.2822 26.0563 23.9233 26.9138L23.9365 26.9317C24.148 27.2155 24.3571 27.5019 24.5639 27.7909L24.6392 27.897L26.6192 30.6183L27.0992 31.2758L27.1018 31.2802C26.8867 30.6486 26.6434 30.0274 26.3767 29.4176Z" fill="#EB2D1A"/>
<path d="M21.3294 11.1781C21.4562 11.4887 21.5858 11.7979 21.7184 12.1057C21.8436 12.3979 21.9718 12.6901 22.103 12.9824C22.147 13.0792 22.191 13.1766 22.235 13.273C22.3036 13.4229 22.3749 13.5715 22.4457 13.7206C22.6002 14.0463 22.7577 14.3702 22.9222 14.6902C22.9293 14.7038 22.9359 14.7169 22.9425 14.7305L22.9522 14.7503C23.166 15.1632 23.3895 15.5722 23.6311 15.9706L23.7279 16.1293C23.7384 16.1469 23.749 16.1644 23.76 16.1819C23.7961 16.2402 23.8348 16.2972 23.8722 16.3546C23.9844 16.5269 24.1006 16.6974 24.2242 16.8627C24.237 16.8798 24.2502 16.8969 24.2638 16.9135L24.303 16.9648C24.42 17.1167 24.5468 17.2608 24.6827 17.3962L24.7267 17.44C24.7421 17.4549 24.757 17.4703 24.7707 17.4838C24.7961 17.509 24.823 17.5327 24.8512 17.5549C24.8659 17.5665 24.8805 17.5779 24.8952 17.589C24.9106 17.6004 24.926 17.6114 24.9418 17.6219L24.9889 17.6495L25.036 17.6772C25.0677 17.6947 25.0989 17.7092 25.1306 17.7254C25.2561 17.784 25.3851 17.8348 25.5169 17.8775L25.5429 17.8854C25.6573 17.9222 25.7721 17.956 25.8874 17.9866C25.971 18.009 26.0546 18.0305 26.1382 18.0493L26.3001 18.0861L26.407 18.1081C26.7304 18.1764 27.0552 18.2339 27.3808 18.2834C27.5474 18.3097 27.7144 18.3347 27.8819 18.3584L27.903 18.361C28.0603 18.3829 28.2172 18.4035 28.3738 18.4228C28.5278 18.4421 28.6818 18.4601 28.8363 18.478L28.9199 18.4877C29.0915 18.5076 29.2632 18.5261 29.4351 18.5433L29.4677 18.5469C29.8483 18.5854 30.2289 18.6201 30.609 18.6529C31.1718 18.7016 31.7346 18.7437 32.2978 18.7823C32.4852 18.7954 32.6731 18.8094 32.8605 18.8213C33.3568 18.8528 33.8529 18.8821 34.3486 18.9089C34.8443 18.9358 35.3406 18.9602 35.8376 18.9821C36.0505 18.9913 36.2639 18.9992 36.4769 19.008C36.6898 19.0168 36.9032 19.026 37.1166 19.0343C37.6517 19.0551 38.1869 19.0735 38.7222 19.0895L39.2572 19.1062C39.5019 19.1132 39.7461 19.1189 39.9907 19.125C40.724 19.1438 41.4574 19.1594 42.1907 19.172H42.2154C42.9487 19.1606 43.682 19.1449 44.4154 19.125C44.66 19.1189 44.9042 19.1132 45.1488 19.1062L45.6839 19.0895C46.2195 19.0729 46.7547 19.0545 47.2894 19.0343C47.5028 19.026 47.7158 19.0168 47.9292 19.008C48.1426 18.9992 48.3556 18.9913 48.5685 18.9821C49.0648 18.9593 49.561 18.9349 50.057 18.9089C50.5531 18.8829 51.0492 18.8537 51.5456 18.8213C51.733 18.8094 51.9209 18.7954 52.1083 18.7823C52.6715 18.7437 53.2343 18.7016 53.797 18.6529C54.1772 18.6201 54.5578 18.5854 54.9384 18.5469L54.971 18.5433C55.1426 18.5258 55.3143 18.5073 55.4862 18.4877L55.5698 18.478C55.7238 18.4601 55.8778 18.4421 56.0322 18.4228C56.1892 18.4035 56.3461 18.3829 56.503 18.361L56.5242 18.3584C56.6914 18.3347 56.8584 18.3097 57.0253 18.2834C57.3509 18.2326 57.6756 18.1751 57.999 18.1081L58.1059 18.0861L58.2679 18.0493C58.3515 18.0296 58.4351 18.009 58.5187 17.9866C58.6339 17.9574 58.7488 17.9237 58.8632 17.8854L58.8892 17.8775C59.021 17.8348 59.15 17.784 59.2755 17.7254C59.3072 17.7092 59.3384 17.6947 59.3701 17.6772L59.4172 17.6495L59.4642 17.6219C59.4801 17.6114 59.4955 17.6004 59.5109 17.589C59.5263 17.5777 59.5412 17.5667 59.5549 17.5549C59.583 17.5326 59.6098 17.5089 59.6354 17.4838C59.6512 17.4689 59.6662 17.4536 59.6816 17.44L59.7256 17.3962C59.8615 17.2608 59.9883 17.1167 60.1053 16.9648L60.1445 16.9135C60.1577 16.8969 60.1713 16.8798 60.1841 16.8627C60.3077 16.6974 60.4239 16.5269 60.5361 16.3546C60.5735 16.2972 60.6122 16.2402 60.6483 16.1819C60.6593 16.1644 60.6694 16.1469 60.6804 16.1293L60.7772 15.9706C61.0188 15.5722 61.2423 15.1632 61.4561 14.7503L61.4658 14.7305C61.4724 14.7169 61.479 14.7038 61.486 14.6902C61.6506 14.3702 61.8081 14.0463 61.9626 13.7206C62.0334 13.5715 62.1047 13.4229 62.1733 13.273C62.2173 13.1766 62.2613 13.0792 62.3053 12.9824C62.4361 12.6919 62.5643 12.3996 62.6899 12.1057C62.8222 11.7979 62.9518 11.4887 63.0788 11.1781C63.2058 10.8674 63.3295 10.5558 63.4498 10.2431V10.2466V10.2418C63.3832 10.3768 63.3158 10.5115 63.2478 10.6459C63.1797 10.7804 63.111 10.9143 63.0414 11.0479C62.8528 11.4117 62.6583 11.7732 62.458 12.1324C62.3383 12.3481 62.2166 12.5627 62.0928 12.7763L62.0831 12.7934C62.0796 12.7987 62.0765 12.8044 62.073 12.8101C61.8433 13.2046 61.604 13.5946 61.3549 13.9801L61.3461 13.9937C61.3435 13.998 61.3404 14.0024 61.3378 14.0072C61.2471 14.1463 61.1547 14.2844 61.0606 14.4215C61.0293 14.4653 60.9967 14.5092 60.9655 14.5561C60.9013 14.6472 60.8379 14.7389 60.7719 14.8292C60.6839 14.951 60.5919 15.0716 60.4982 15.1904C60.4582 15.2421 60.416 15.2925 60.3742 15.3429C60.3491 15.3732 60.3253 15.4047 60.2998 15.4345C60.2743 15.4643 60.2558 15.4854 60.2347 15.5108C60.2136 15.5362 60.1946 15.5546 60.1748 15.5774C60.1255 15.634 60.0763 15.6901 60.0252 15.7449C59.9742 15.7997 59.9205 15.8549 59.8659 15.908C59.8299 15.9435 59.7925 15.9763 59.7551 16.0101C59.6697 16.0898 59.5799 16.1647 59.4862 16.2345L59.4757 16.2429L59.4647 16.2512C59.4255 16.2798 59.3843 16.3056 59.3415 16.3283L59.2609 16.3665L59.2442 16.373L59.1928 16.3932L59.1844 16.3967L59.176 16.3998L59.1633 16.4042C59.1294 16.4169 59.0955 16.4287 59.0603 16.4397L59.0079 16.4555C58.9855 16.462 58.964 16.469 58.9406 16.4752C58.8988 16.4875 58.857 16.4993 58.8144 16.5103C58.7717 16.5212 58.7264 16.53 58.6854 16.5401C58.5565 16.5694 58.4267 16.597 58.2952 16.6207C58.2136 16.6356 58.1321 16.6502 58.0505 16.6646H58.0413C57.948 16.6789 57.8544 16.6928 57.7606 16.7062L57.6435 16.7215L57.4697 16.7448C57.3371 16.7614 57.2042 16.7772 57.0711 16.7921C56.8757 16.8137 56.6799 16.8336 56.4837 16.8517C56.0608 16.8916 55.6362 16.9236 55.2112 16.9517L54.9032 16.9714C54.7171 16.9828 54.5309 16.9916 54.3444 17.0017C54.1578 17.0117 53.9722 17.0227 53.786 17.0315H53.783C53.4037 17.0499 53.0239 17.0662 52.6438 17.0806L52.386 17.0889C52.0912 17.0994 51.7959 17.1099 51.5007 17.1183C51.2336 17.1257 50.9661 17.1314 50.6986 17.1375C50.4737 17.1428 50.2489 17.1494 50.024 17.1538C49.5321 17.1634 49.0405 17.1716 48.5492 17.1783L48.2156 17.1814C47.883 17.1849 47.5499 17.188 47.2164 17.1906C46.757 17.1935 46.2974 17.1954 45.8374 17.1963C45.6843 17.1963 45.5294 17.1963 45.3781 17.1963H45.1638C44.1782 17.1963 43.1932 17.1901 42.2088 17.1779H42.1876C41.2038 17.1901 40.2188 17.1963 39.2326 17.1963H39.0183C38.8652 17.1963 38.7103 17.1963 38.559 17.1963C38.099 17.1963 37.6394 17.1944 37.18 17.1906C36.8465 17.188 36.5132 17.1849 36.1803 17.1814L35.8472 17.1783C35.3559 17.1713 34.8643 17.1631 34.3724 17.1538C34.1475 17.1494 33.9227 17.1428 33.6978 17.1375C33.4303 17.1314 33.1628 17.1257 32.8957 17.1183C32.6005 17.1099 32.3052 17.0994 32.0104 17.0889L31.7526 17.0806C31.3815 17.0671 31.0053 17.0512 30.624 17.0328C30.4379 17.024 30.2518 17.0126 30.0656 17.003C29.8795 16.9933 29.693 16.9841 29.5068 16.9727L29.1988 16.953C28.7738 16.9249 28.3492 16.8929 27.9264 16.853C27.7301 16.8352 27.5343 16.8153 27.339 16.7934C27.2058 16.7785 27.0729 16.7627 26.9403 16.7461L26.7643 16.7229L26.649 16.7075C26.5552 16.6944 26.4614 16.6805 26.3679 16.6659H26.3591C26.2772 16.6527 26.1957 16.6381 26.1144 16.622C25.9824 16.5984 25.8531 16.5707 25.7242 16.5414C25.6802 16.5313 25.6362 16.5221 25.5952 16.5116C25.5543 16.501 25.5108 16.4888 25.469 16.4765C25.4461 16.4704 25.425 16.4634 25.4016 16.4568L25.3493 16.441C25.3141 16.43 25.2802 16.4182 25.2463 16.4055L25.2336 16.4011L25.2252 16.398L25.2168 16.3945L25.1654 16.3744L25.1486 16.3678L25.0681 16.3297C25.0253 16.3069 24.9841 16.2811 24.9449 16.2525L24.9339 16.2442L24.9234 16.2358C24.8297 16.166 24.7399 16.0911 24.6545 16.0114C24.6171 15.9777 24.5797 15.9448 24.5436 15.9093C24.4891 15.8564 24.436 15.802 24.3844 15.7462C24.3333 15.6914 24.284 15.6353 24.2348 15.5787C24.215 15.5564 24.1943 15.5349 24.1749 15.5121C24.1556 15.4893 24.1309 15.4617 24.1098 15.4358C24.0887 15.41 24.0605 15.3745 24.0354 15.3442C23.9914 15.2938 23.9514 15.2434 23.9114 15.1917C23.8176 15.0729 23.727 14.9523 23.6377 14.8305C23.5717 14.7402 23.5083 14.6486 23.4441 14.5574C23.4128 14.5135 23.3798 14.4697 23.349 14.4228C23.2549 14.2857 23.1625 14.1477 23.0718 14.0086C23.0692 14.0037 23.0661 13.9993 23.0635 13.995L23.056 13.9836C22.8064 13.5993 22.567 13.2093 22.3379 12.8136C22.3344 12.8079 22.3313 12.8022 22.3278 12.7969C22.3243 12.7917 22.3212 12.7855 22.3181 12.7798C22.1527 12.4949 21.9913 12.2084 21.8341 11.9202C21.6769 11.6321 21.5223 11.3425 21.3704 11.0514C21.3008 10.9176 21.232 10.7836 21.164 10.6494C21.0959 10.5153 21.0286 10.3806 20.962 10.2453V10.2501V10.2466C21.08 10.5572 21.2024 10.8677 21.3294 11.1781Z" fill="#EB2D1A"/>
<path d="M16.6412 13.8323C16.4555 13.7675 16.2716 13.7074 16.0903 13.6535C15.7456 13.549 15.3948 13.4649 15.0401 13.4019C14.7229 13.3449 14.4014 13.3156 14.0791 13.3142C13.4737 13.3168 12.9452 13.4457 12.5272 13.7412C11.5152 14.4535 11.6353 16.0346 12.2962 17.8928C12.3235 17.9703 12.3519 18.0482 12.3816 18.1265C12.5871 18.6749 12.8365 19.2452 13.1151 19.8216C13.1995 19.9969 13.3276 20.2161 13.4464 20.4243C13.4701 20.4656 13.4935 20.5068 13.5159 20.5466C13.5599 20.6269 13.6039 20.7031 13.6387 20.7715C13.7099 20.9083 13.7815 21.0448 13.8534 21.1809C13.926 21.3168 13.9986 21.4523 14.0734 21.5873C14.22 21.8573 14.3708 22.125 14.5257 22.3904C14.6031 22.5228 14.6809 22.6543 14.7589 22.7849C14.9149 23.0479 15.0742 23.3096 15.2367 23.57C15.3177 23.7015 15.4 23.8286 15.4831 23.9566C15.7291 24.3433 15.9856 24.7224 16.2465 25.0963C16.3345 25.2217 16.4218 25.3465 16.5083 25.4707C16.3617 25.2024 16.2168 24.9336 16.0736 24.6641C16.0026 24.5291 15.9324 24.3937 15.8629 24.2578C15.7933 24.1219 15.7253 23.9854 15.6587 23.8483C15.5903 23.7119 15.5233 23.575 15.4576 23.4376C15.3912 23.3004 15.3256 23.1623 15.2623 23.0242C15.1338 22.7475 15.0084 22.4699 14.8861 22.1914C14.6401 21.6342 14.4113 21.0696 14.1931 20.5024C14.1385 20.3603 14.0851 20.2182 14.0329 20.0759C13.9807 19.9335 13.9293 19.7908 13.8789 19.6476C13.8516 19.5691 13.8252 19.4902 13.7984 19.4113C13.7715 19.3324 13.7438 19.2535 13.7179 19.1746C14.1 18.7683 14.6066 18.4997 15.1584 18.411C15.6209 18.336 16.1757 18.304 16.7864 18.3049C18.487 18.3071 20.6298 18.5613 22.4624 18.8375L22.6824 18.8708C23.1158 18.9374 23.5294 19.0049 23.9144 19.0698L24.1036 19.1023L24.4662 19.1654L24.805 19.2259C25.0223 19.2649 25.2225 19.3022 25.4025 19.3359C25.5376 19.3609 25.6612 19.3846 25.7721 19.406L25.9763 19.4455C26.2561 19.5007 26.4136 19.5332 26.4136 19.5332C26.399 19.5273 26.3852 19.5195 26.3727 19.5099C26.3494 19.4946 26.3168 19.4718 26.2746 19.4424C25.417 18.8371 20.7772 15.3657 16.9246 13.9354C16.8278 13.8985 16.7345 13.8648 16.6412 13.8323Z" fill="#EB2D1A"/>
<path d="M74.158 14.2926C73.373 12.4353 71.7565 11.2679 70.5689 10.624C70.1322 10.3627 69.6663 10.1532 69.1807 9.99978L69.1415 9.98707H69.1389C68.9374 9.92395 68.7275 9.86652 68.5079 9.81655C68.0376 9.71101 67.5601 9.6401 67.0793 9.60438C66.822 9.58451 66.5546 9.57297 66.2771 9.56975C65.8609 9.56508 65.4209 9.57969 64.9571 9.61359C64.9571 9.61359 64.7732 9.59123 64.4335 9.57458C64.3482 9.57063 64.2531 9.56756 64.1493 9.56449L63.9861 9.56099H63.8101C63.6882 9.56099 63.5566 9.56099 63.4167 9.56362C63.2768 9.56625 63.1285 9.57019 62.9723 9.57677C62.2235 9.60892 61.477 9.68047 60.7358 9.79112C59.7751 9.93326 58.824 10.1343 57.8881 10.393C55.0792 10.1992 51.571 10.1471 48.5852 10.1479C45.2011 10.1479 42.4877 10.219 42.2215 10.2255C42.2175 10.2252 42.2135 10.2252 42.2096 10.2255C42.2059 10.2252 42.2023 10.2252 42.1986 10.2255C41.9324 10.219 39.2189 10.1497 35.8349 10.1479H35.7434C32.7773 10.1479 29.3123 10.2014 26.5315 10.393C24.8734 9.93021 23.1679 9.65639 21.4478 9.57677C21.2916 9.57019 21.1428 9.56625 21.0034 9.56362C20.8639 9.56099 20.7319 9.56055 20.61 9.56099H20.434L20.2712 9.56449C20.1669 9.56756 20.0723 9.57063 19.9874 9.57458C19.6468 9.59123 19.4638 9.61359 19.4638 9.61359C18.2274 9.51934 17.1644 9.57458 16.2518 9.7451C16.0239 9.78893 15.8043 9.8389 15.5918 9.89545C15.4862 9.92395 15.3837 9.95419 15.2838 9.98575C14.9021 10.1053 14.5316 10.258 14.1768 10.4421C14.0932 10.4859 14.0113 10.5312 13.9312 10.578C13.5484 10.7992 13.1927 11.064 12.8713 11.367C12.8092 11.4249 12.7498 11.4845 12.6913 11.545C11.2327 13.0512 10.824 15.1474 10.736 16.8601C10.7324 16.9289 10.7294 16.9964 10.7267 17.0635C10.6942 17.9375 10.7412 18.6968 10.7654 19.2039C10.7712 19.321 10.7756 19.4231 10.7773 19.5134C10.7848 19.8672 10.8059 20.1924 10.8424 20.5102C10.9925 21.8358 11.399 23.0396 12.1365 25.7192C12.166 25.8266 12.1963 25.9362 12.2267 26.0476C12.257 26.1589 12.2861 26.2667 12.3147 26.3759C12.6764 27.7786 12.7806 28.7136 12.7806 29.3269C12.7806 30.1598 12.5892 30.3961 12.5892 30.3961C12.5892 27.9649 11.5429 27.0238 10.5151 23.2399C10.4786 23.1044 10.4425 22.9659 10.4051 22.823C10.3677 22.6801 10.3325 22.5341 10.296 22.3847C10.2229 22.0842 10.1508 21.7669 10.0795 21.4325C9.82428 20.2385 9.68656 18.162 9.94132 16.0701C9.95892 15.9258 9.97842 15.7816 9.99984 15.6375C10.0108 15.5656 10.0218 15.4933 10.0337 15.4218C10.0566 15.2777 10.082 15.1342 10.1098 14.9913C10.1235 14.9199 10.138 14.8489 10.1538 14.7774C10.5828 12.7172 11.4611 10.8204 13.064 9.95551C13.3717 9.7901 13.6741 9.64398 13.9713 9.51715C14.0704 9.47419 14.1687 9.43328 14.2661 9.39441C14.1922 9.40099 14.1169 9.40625 14.0421 9.40975C13.9673 9.41326 13.8908 9.41501 13.8146 9.41501C13.3527 9.42162 12.8931 9.3482 12.4564 9.19803C12.3266 9.15286 12.207 9.08271 12.1044 8.99156C12.0806 8.97008 12.0582 8.94773 12.0375 8.92449C11.5583 8.39014 11.8091 7.38104 12.393 6.63934C12.4185 6.60734 12.4445 6.57534 12.4709 6.54378C12.5243 6.48153 12.5797 6.42177 12.6372 6.36449C12.6658 6.336 12.6953 6.30795 12.7252 6.28077C12.8513 6.17042 12.9928 6.07901 13.1454 6.00942C13.4437 5.86696 13.8142 5.75912 14.2067 5.67715C14.2947 5.65874 14.3827 5.64208 14.4707 5.6263C14.8253 5.56318 15.187 5.51934 15.521 5.4891C15.8549 5.45885 16.1581 5.44132 16.3979 5.43167C16.4705 5.42898 16.543 5.44117 16.6107 5.46749C16.6784 5.4938 16.74 5.53368 16.7917 5.58466C16.8984 5.69019 16.9591 5.83334 16.9606 5.98312C16.9791 7.31836 16.5105 8.40855 16.3178 8.80044C16.8015 8.71005 17.2912 8.65496 17.783 8.63562C17.9744 8.6286 18.153 8.62816 18.3176 8.63123C19.0999 8.64789 19.5654 8.75967 19.5654 8.75967C19.5654 8.75967 22.942 4.20296 27.9254 1.16515C27.9254 1.16515 29.4162 0.796055 32.4236 0.472986L32.6779 0.446685C32.8495 0.428712 33.0255 0.41074 33.2059 0.394082C33.8401 0.332712 34.5316 0.276018 35.2805 0.224C36.2432 0.157808 37.3014 0.10126 38.4551 0.0613699C39.6088 0.0214795 40.8592 0 42.2052 0H42.2158C44.9068 0 47.2137 0.0929315 49.1396 0.225753C49.8885 0.277479 50.5806 0.333735 51.216 0.394521C51.3972 0.411178 51.5732 0.429151 51.7439 0.447123L51.9978 0.473425C55.0048 0.797808 56.4959 1.1669 56.4959 1.1669C61.4798 4.20471 64.8559 8.76143 64.8559 8.76143C64.8559 8.76143 65.3215 8.64964 66.1038 8.63299C66.2683 8.62992 66.4474 8.63036 66.6384 8.63737C67.1308 8.65557 67.6213 8.70963 68.1058 8.79912C67.9126 8.40723 67.4458 7.31704 67.4629 5.98181C67.4641 5.88734 67.4886 5.7946 67.5342 5.71178C67.5604 5.66448 67.5933 5.62122 67.6319 5.58334C67.7308 5.48551 67.8644 5.43039 68.0037 5.42992H68.0253C68.6714 5.45291 69.3153 5.51792 69.9529 5.62455C70.0409 5.64033 70.1289 5.65699 70.2169 5.6754C70.6089 5.75737 70.9794 5.86521 71.2777 6.00767C71.4304 6.07716 71.572 6.16858 71.6979 6.27901C71.8187 6.3891 71.9299 6.50904 72.0306 6.63759C72.0816 6.70159 72.1296 6.7691 72.1753 6.8366C72.1978 6.87079 72.2193 6.90499 72.2409 6.93962C72.4073 7.20576 72.5274 7.49803 72.596 7.80405C72.6262 7.9418 72.6403 8.08258 72.6378 8.22356C72.6272 8.66192 72.427 9.03058 71.9659 9.19627C71.5292 9.34658 71.0696 9.42001 70.6076 9.41326C70.5315 9.41326 70.4558 9.41107 70.381 9.408C70.3062 9.40493 70.2305 9.39923 70.1562 9.39266C70.2539 9.43167 70.3529 9.47244 70.4514 9.5154C70.7489 9.6434 71.0514 9.78952 71.3591 9.95375C71.9664 10.2821 72.4701 10.7586 72.8851 11.3355C73.0766 11.6043 73.2475 11.8871 73.3963 12.1815C73.7233 12.825 73.9727 13.5452 74.158 14.2926Z" fill="#EB2D1A"/>
<path d="M42.2211 27.7181C42.6752 27.7076 43.1297 27.6949 43.5851 27.6826C44.1747 27.6672 44.764 27.6503 45.3531 27.6322C45.8074 27.6185 46.2621 27.6039 46.7171 27.5884C48.2214 27.5362 49.7262 27.4806 51.2297 27.4074L52.3574 27.3473C52.7345 27.3276 53.1094 27.3035 53.4865 27.278C53.8635 27.2526 54.238 27.2219 54.6142 27.1904L55.1778 27.1338C55.2064 27.1338 55.235 27.1277 55.2658 27.1237C55.3028 27.1194 55.3397 27.1141 55.3767 27.1084L55.4647 27.0948L55.7472 27.051C55.8415 27.0362 55.9349 27.0161 56.027 26.9909L56.3047 26.9238C56.3363 26.9168 56.3676 26.9076 56.3988 26.898C56.4468 26.8826 56.4943 26.866 56.5423 26.8506C56.5541 26.8467 56.566 26.8423 56.5783 26.8388C56.6663 26.8081 56.7601 26.7796 56.8498 26.7485L57.2458 26.5815C57.2898 26.5609 57.3303 26.5377 57.3739 26.5162L57.4337 26.4855L57.6291 26.3864C57.6929 26.3487 57.7558 26.3097 57.8191 26.2711L57.8746 26.2374C58.0702 26.1143 58.2581 25.9794 58.4373 25.8337C58.8515 25.5045 59.2062 25.1072 59.4859 24.6589C59.4753 24.6742 59.4652 24.6891 59.4537 24.7027C59.4304 24.7338 59.397 24.775 59.3539 24.8232C59.2561 24.929 59.1503 25.0272 59.0375 25.1169L58.9618 25.1766C59.0199 25.1292 59.0753 25.0806 59.1299 25.031C59.2581 24.9158 59.3771 24.7908 59.4859 24.6571L59.4806 24.6628C59.4819 24.6607 59.4836 24.6588 59.4854 24.6571C59.4771 24.6654 59.4691 24.6742 59.4612 24.6825L59.4537 24.69C59.3604 24.7806 59.2582 24.8618 59.1488 24.9324C58.8927 25.1029 58.4717 25.3247 57.8112 25.5364C57.6951 25.5737 57.5736 25.611 57.4416 25.6469L57.3404 25.6745C57.2152 25.7081 57.0832 25.7409 56.9444 25.7727C56.8507 25.7942 56.7548 25.8166 56.6545 25.8354C56.3611 25.8939 56.0393 25.9486 55.6891 25.9998C55.1202 26.0791 54.4707 26.1427 53.7302 26.1808C53.5982 26.1874 53.4614 26.194 53.3223 26.1992H53.3171L53.0993 26.2036C52.8507 26.2093 52.6016 26.2155 52.3513 26.219H52.1854H52.137L51.224 26.2277C50.8482 26.2304 50.4725 26.2321 50.0967 26.233C49.5881 26.233 49.0793 26.233 48.5703 26.233C47.9517 26.2304 47.3332 26.2264 46.7149 26.2212C46.0505 26.215 45.3864 26.2073 44.7225 26.1979C43.8912 26.1865 43.0601 26.1734 42.2291 26.1585H42.2044C41.3687 26.174 40.5327 26.1871 39.6964 26.1979C39.0367 26.207 38.3767 26.2147 37.7164 26.2212C37.0981 26.2264 36.4796 26.2304 35.8609 26.233C35.3523 26.2347 34.8435 26.2347 34.3346 26.233C33.9585 26.233 33.5828 26.2312 33.2073 26.2277L32.2943 26.219H32.2459H32.08C31.8305 26.2155 31.5815 26.2093 31.332 26.2036L31.1142 26.1992H31.1081C30.969 26.194 30.8335 26.1874 30.7002 26.1808C29.9597 26.1427 29.3102 26.0791 28.7413 25.9998C28.3893 25.9501 28.0675 25.8953 27.7759 25.8354C27.6756 25.8152 27.5797 25.7942 27.486 25.7727C27.3466 25.7412 27.2146 25.7084 27.09 25.6745L26.9883 25.6469C26.8563 25.611 26.7353 25.5737 26.6192 25.5364C25.9592 25.3247 25.5377 25.1029 25.2816 24.9324C25.1722 24.8618 25.07 24.7806 24.9767 24.69L24.9692 24.6825C24.9613 24.6742 24.9533 24.6654 24.945 24.6571C24.9468 24.6588 24.9484 24.6607 24.9498 24.6628L24.9445 24.6571C25.0521 24.79 25.1698 24.9144 25.2965 25.0293C25.3515 25.0797 25.4079 25.1288 25.4664 25.1766L25.3881 25.1178C25.2752 25.0281 25.1695 24.9299 25.0717 24.8241C25.0277 24.7759 24.9951 24.7364 24.9718 24.7036C24.9604 24.6882 24.9503 24.6733 24.9397 24.6597C25.2194 25.108 25.574 25.5054 25.9882 25.8345C26.1674 25.9803 26.3554 26.1151 26.551 26.2383L26.6064 26.272C26.6698 26.3106 26.7327 26.3496 26.7965 26.3873L26.9919 26.4864L27.0517 26.517C27.0957 26.5394 27.1375 26.5609 27.1797 26.5824L27.5757 26.7494C27.6637 26.7805 27.7575 26.809 27.8472 26.8397L27.8842 26.8515C27.9317 26.8673 27.9792 26.884 28.0272 26.8989C28.0584 26.9085 28.0892 26.9177 28.1209 26.9247L28.3985 26.9918C28.4906 27.017 28.584 27.037 28.6784 27.0518L28.9609 27.0957L29.0489 27.1093C29.0858 27.115 29.1228 27.1202 29.1597 27.1246C29.1883 27.1286 29.2169 27.1325 29.2455 27.1347L29.8092 27.1912C30.1854 27.221 30.5611 27.2548 30.9369 27.2789C31.3127 27.303 31.6889 27.3284 32.0659 27.3482L33.1937 27.4082C34.6971 27.4814 36.2019 27.5371 37.7063 27.5893C38.1607 27.6042 38.6153 27.6188 39.0703 27.6331C39.6596 27.6509 40.2489 27.6677 40.8382 27.6835C41.2927 27.6958 41.7468 27.7085 42.2022 27.719L42.2211 27.7181Z" fill="#EB2D1A"/>
<path d="M63.4629 32.0044C61.4283 33.3278 58.241 33.543 56.8083 33.5688H56.7978L56.1105 33.5653H56.0665L56.0181 33.4974C56.0124 33.4899 56.0045 33.4794 55.9952 33.4685C55.986 33.4575 55.9649 33.4338 55.9512 33.4167C55.9472 33.4124 55.9433 33.4079 55.9398 33.4032C55.9305 33.3935 55.9209 33.3834 55.9107 33.3738L55.876 33.3387C55.8659 33.3299 55.8562 33.3199 55.8461 33.3111C55.8109 33.2787 55.7752 33.2484 55.7392 33.2204C55.7101 33.1971 55.6815 33.1765 55.6511 33.155C55.5265 33.067 55.3903 32.9965 55.2463 32.9455C55.1126 32.8963 54.9732 32.864 54.8314 32.8495C54.7745 32.8431 54.7172 32.8397 54.6598 32.8394H54.6229C54.5529 32.8394 54.4816 32.8434 54.4081 32.846L52.6631 32.9157L49.1766 33.0547L42.2219 33.3335H42.2012L35.2439 33.0547L31.757 32.9157L30.0123 32.846C29.9384 32.8434 29.8676 32.8394 29.7972 32.8394H29.7602C29.7029 32.8397 29.6456 32.8431 29.5886 32.8495C29.447 32.864 29.3077 32.8962 29.1741 32.9455C29.0302 32.9964 28.8939 33.0669 28.7693 33.155C28.7394 33.1748 28.7108 33.1989 28.6813 33.2195C28.6453 33.2484 28.6092 33.2787 28.574 33.3111L28.5445 33.3387L28.5084 33.3738L28.4807 33.4032L28.4688 33.4167L28.4248 33.4685C28.416 33.4794 28.4077 33.4891 28.4024 33.4974L28.3535 33.5653H28.3096L26.0479 33.5781C25.9705 33.5781 25.8931 33.5807 25.8147 33.5807H25.8059C25.7061 33.5807 25.6053 33.5807 25.5046 33.5781H25.4984C25.3048 33.5734 25.1108 33.5674 24.9163 33.5601L23.7841 33.5241C22.2758 33.4695 20.7677 33.3473 19.2596 33.1577C19.0308 33.1244 18.8025 33.0915 18.5741 33.0564C18.0391 32.9749 17.504 32.8872 16.969 32.7833C16.969 32.7833 16.9668 32.7833 16.965 32.7833C16.2267 32.7211 15.491 32.6387 14.7554 32.5234C14.5354 32.4927 14.3132 32.4532 14.0927 32.412C13.9387 32.3844 13.7847 32.3559 13.6303 32.3287C13.5528 32.3165 13.4767 32.2994 13.4001 32.2814C13.2897 32.2564 13.1801 32.2292 13.0701 32.206C12.884 32.1622 12.6957 32.1271 12.5105 32.0701L11.9521 31.9106L11.396 31.715C11.2134 31.6379 11.0281 31.5647 10.8464 31.4761C10.6568 31.3862 10.478 31.2755 10.3131 31.1461H10.3175C10.4029 31.1596 11.8135 31.381 13.8322 31.5949C15.781 31.8014 18.2987 32 20.7455 32C21.2518 32.0102 21.7582 32.0156 22.2648 32.0162C22.7714 32.0168 23.278 32.013 23.7846 32.0048L24.9149 31.9838C25.1235 31.9811 25.3334 31.9767 25.5428 31.9706C25.71 31.9662 25.8764 31.9605 26.0436 31.9535L28.2563 31.8658L28.2884 31.8435C28.3021 31.8343 28.3157 31.8255 28.3298 31.8154C28.3667 31.7904 28.4046 31.7681 28.4416 31.7475C28.5138 31.7063 28.5883 31.6691 28.6646 31.6361C28.81 31.5726 28.9608 31.5223 29.1152 31.4858C29.1662 31.4731 29.2177 31.4625 29.2687 31.4525C29.3479 31.4376 29.4271 31.4249 29.5072 31.4161C29.527 31.4161 29.5468 31.4113 29.5675 31.4095C29.6194 31.4042 29.6709 31.4007 29.7228 31.3981C29.8012 31.3937 29.8795 31.3915 29.9551 31.3907H30.0146L31.7591 31.3674L35.247 31.3201L42.199 31.225H42.225L49.177 31.3201L52.6644 31.3674L54.4095 31.3907H54.4689C54.5432 31.3907 54.6207 31.3937 54.699 31.3972C54.7509 31.4007 54.8033 31.4034 54.8565 31.4095L54.9168 31.4161C54.9969 31.4249 55.0756 31.4376 55.1548 31.4525C55.2063 31.4625 55.2574 31.4731 55.3088 31.4858C55.4632 31.5223 55.614 31.5727 55.7594 31.6361C55.8357 31.6693 55.9101 31.7064 55.9825 31.7475C56.0194 31.7681 56.0568 31.7913 56.0938 31.8154L56.1343 31.8426L56.1677 31.8658L58.38 31.9535C58.5463 31.9605 58.7135 31.9662 58.8807 31.9706C59.0905 31.9767 59.2998 31.9811 59.5086 31.9838L60.639 32.0048C61.1456 32.0136 61.6523 32.0174 62.1592 32.0162C62.593 32.0159 63.0276 32.012 63.4629 32.0044Z" fill="#EB2D1A"/>
</svg>
